# xmcd
# 
# Track frame offsets:
#     150
#     4637
#     11600
#     24467
#     45207
#     62225
#     77672
#     89447
#     111865
#     126812
#     140275
#     162672
#     187810
#     200315
#     217910
#     227550
#     237565
#     253745
#     267077
# 
# Disc length: 3761
# 
# Revision: 1
# Processed by: cddbd v1.5.2PL0 Copyright (c) Steve Scherf et al.
# Submitted via: BonkEnc v1.0.8
# 
DISCID=f40eaf13
DTITLE=Various Artist - The Rounder Christmas Album - Must be Santa!
DYEAR=1995
DGENRE=Cult
TTITLE0=David Grisman - What Child is This?
TTITLE1=Riders in the Sky - Christmas at the Triple X Ranch
TTITLE2=NRBQ - Christmas Wish
TTITLE3=Charles Brown - Blue Holliday
TTITLE4=Luther Johnson - Merry Christmas Baby
TTITLE5=George Throrogood - Rock and Roll Christmas
TTITLE6=Brave Combo - Must Be Santa (Polka)
TTITLE7=Nathan and The Zydeco Cha-Cha's - I Don't You Just for Christmas
TTITLE8=Mary Wells - Silent Night
TTITLE9=Barry and Holly Tashian - Long, Long Ago
TTITLE10=Irma Thomas - Oh Holy Night
TTITLE11=John McCutcheon - Christmas in the Trenches
TTITLE12=Mary McCaslin - Good King Wenceslas
TTITLE13=Louvin Brothers - A Shut-In at Christmas - Shut-In's Prayer
TTITLE14=Johnson Mountain Boys - The Friedly Beast
TTITLE15=John Fahey with Terry Robb - The Holly and the Ivy - The Cherry Tree Carol
TTITLE16=Tony Trischka - Precious Child
TTITLE17=Joseph Spence - Santa Claus is Coming
TTITLE18=Bill Keith - Auld Lang Syne
EXTD=
EXTT0=
EXTT1=
EXTT2=
EXTT3=
EXTT4=
EXTT5=
EXTT6=
EXTT7=
EXTT8=
EXTT9=
EXTT10=
EXTT11=
EXTT12=
EXTT13=
EXTT14=
EXTT15=
EXTT16=
EXTT17=
EXTT18=
PLAYORDER=
